<?xml version="1.0" standalone="no"?>
<!DOCTYPE svg PUBLIC "-//W3C//DTD SVG 20010904//EN"
 "http://www.w3.org/TR/2001/REC-SVG-20010904/DTD/svg10.dtd">
<svg version="1.0" xmlns="http://www.w3.org/2000/svg"
 width="2001.000000pt" height="2001.000000pt" viewBox="0 0 2001.000000 2001.000000"
 preserveAspectRatio="xMidYMid meet">
<metadata>
Created by potrace 1.11, written by Peter Selinger 2001-2013
</metadata>
<g transform="translate(0.000000,2001.000000) scale(0.100000,-0.100000)"
fill="#000000" stroke="none">
<path d="M3169 20006 c-2 -2 -42 -6 -89 -10 -487 -38 -1001 -204 -1430 -463
-126 -76 -141 -86 -154 -96 -6 -4 -49 -35 -96 -69 -303 -218 -595 -518 -806
-828 -274 -402 -454 -846 -533 -1315 -29 -171 -35 -213 -47 -360 -8 -103 -8
-13593 0 -13700 9 -118 17 -197 21 -225 2 -14 6 -43 10 -65 3 -23 7 -52 10
-65 3 -14 8 -41 11 -60 30 -176 111 -450 190 -644 372 -912 1136 -1624 2072
-1930 120 -39 255 -76 337 -92 11 -2 31 -6 45 -9 58 -13 179 -33 235 -40 33
-3 74 -8 90 -10 17 -2 86 -7 155 -11 163 -9 13476 -9 13640 0 123 7 146 9 225
20 22 3 63 8 90 11 28 4 57 8 65 10 8 2 31 7 50 10 19 3 66 13 104 22 37 8 73
16 80 17 89 19 297 86 441 143 521 205 985 544 1355 988 90 109 112 139 219
299 141 211 278 488 364 736 75 218 142 505 162 700 2 14 7 61 11 105 12 103
12 13763 1 13874 -5 47 -10 92 -12 100 -4 24 -14 90 -20 141 -21 158 -138 577
-200 716 -10 21 -26 59 -37 84 -197 455 -509 874 -901 1213 -83 72 -286 225
-327 247 -14 7 -27 16 -30 19 -6 8 -163 101 -260 154 -318 175 -795 323 -1165
362 -33 4 -71 9 -85 13 -26 7 -13783 15 -13791 8z"/>
</g>
</svg>
